<svg xmlns="http://www.w3.org/2000/svg" width="24" height="24" viewBox="0 0 24 24"><g transform="translate(-1073 -444)"><g transform="translate(1079 451.001)"><g transform="translate(0 -0.001)"><path d="M7.608,4.879a3.358,3.358,0,0,1,3.351-3.358L10.965.036h-.071A4.832,4.832,0,0,0,6.073,4.5L.94.264S.562-.124.281.038A.588.588,0,0,0,0,.488V9.749H1.817V3.426L6.895,7.587a5.172,5.172,0,0,0,3.936,2.125l.132-.01V8.236A3.357,3.357,0,0,1,7.608,4.879Z" transform="translate(0 0.001)" fill="#9fa7b3"/><circle cx="1.354" cy="1.354" r="1.354" transform="translate(9.61 3.527)" fill="#de2a2d"/></g></g><g transform="translate(1073 444)" fill="none" stroke="#2aab3c" stroke-width="1"><circle cx="12" cy="12" r="12" stroke="none"/><circle cx="12" cy="12" r="11.5" fill="none"/></g></g></svg>