<svg xmlns="http://www.w3.org/2000/svg" xmlns:xlink="http://www.w3.org/1999/xlink" width="32" height="32" viewBox="0 0 32 32"><defs><radialGradient id="a" cx="0.284" cy="0.237" r="1.011" gradientTransform="matrix(0.708, 0.706, -0.85, 0.852, 0.284, -0.165)" gradientUnits="objectBoundingBox"><stop offset="0" stop-color="#042e62"/><stop offset="1" stop-color="#021e40"/></radialGradient></defs><g transform="translate(-87 -69)"><g transform="translate(87 69)" stroke="#296acf" stroke-width="1" fill="url(#a)"><circle cx="16" cy="16" r="16" stroke="none"/><circle cx="16" cy="16" r="15.5" fill="none"/></g><path d="M8.976-5.9a.546.546,0,0,1,.4.128.546.546,0,0,1,.128.4v4.3q0,.64-1.064.912A10.42,10.42,0,0,1,5.888.112Q.864.112.864-5.536q0-5.776,5.216-5.776a7.338,7.338,0,0,1,1.488.152,4.865,4.865,0,0,1,1.208.392q.472.24.472.5A1.431,1.431,0,0,1,9-9.6q-.248.416-.44.416a2.082,2.082,0,0,1-.4-.176,4.887,4.887,0,0,0-.872-.32A4.478,4.478,0,0,0,6.1-9.824,3.157,3.157,0,0,0,3.432-8.776a5.1,5.1,0,0,0-.808,3.144A5.543,5.543,0,0,0,3.392-2.5,2.88,2.88,0,0,0,5.968-1.36a7.979,7.979,0,0,0,1.824-.192v-2.88H6.048a.309.309,0,0,1-.28-.136.837.837,0,0,1-.088-.44v-.32a.837.837,0,0,1,.088-.44.309.309,0,0,1,.28-.136ZM16.8.112A5.044,5.044,0,0,1,12.88-1.28a6.3,6.3,0,0,1-1.264-4.336q0-5.7,5.216-5.7a7.132,7.132,0,0,1,1.544.168,4.374,4.374,0,0,1,1.208.424q.4.24.4.448a1.431,1.431,0,0,1-.248.672q-.248.416-.44.416a2.082,2.082,0,0,1-.4-.176,4.943,4.943,0,0,0-.864-.32,4.389,4.389,0,0,0-1.184-.144,3.225,3.225,0,0,0-2.624,1.016A4.965,4.965,0,0,0,13.376-5.6a5.045,5.045,0,0,0,.84,3.2A3.124,3.124,0,0,0,16.8-1.36a4.27,4.27,0,0,0,1.328-.184,7.924,7.924,0,0,0,1.072-.44.818.818,0,0,1,.3-.128.406.406,0,0,1,.3.2,2.3,2.3,0,0,1,.264.448,1.027,1.027,0,0,1,.112.36q0,.32-.528.592a4.665,4.665,0,0,1-1.264.448A7.21,7.21,0,0,1,16.8.112Z" transform="translate(93 91)" fill="#c5dcff"/></g></svg>