<svg xmlns="http://www.w3.org/2000/svg" width="200" height="75" viewBox="0 0 200 75"><g transform="translate(-365 -292)"><path d="M12.474.231Q7,.231,4.389-2.64T1.782-11.583q0-11.748,10.758-11.748a14.71,14.71,0,0,1,3.184.347,9.022,9.022,0,0,1,2.492.875q.825.495.825.924A2.952,2.952,0,0,1,18.53-19.8q-.512.858-.907.858a4.3,4.3,0,0,1-.825-.363,10.194,10.194,0,0,0-1.782-.66,9.052,9.052,0,0,0-2.442-.3q-3.663,0-5.412,2.1T5.412-11.55q0,4.455,1.733,6.6a6.444,6.444,0,0,0,5.33,2.145,8.808,8.808,0,0,0,2.739-.379,16.344,16.344,0,0,0,2.211-.908,1.688,1.688,0,0,1,.627-.264.838.838,0,0,1,.61.412,4.753,4.753,0,0,1,.545.924,2.119,2.119,0,0,1,.231.743q0,.66-1.089,1.221a9.621,9.621,0,0,1-2.607.924A14.87,14.87,0,0,1,12.474.231ZM24.651.066q-1.518,0-1.518-.825V-12.012a17.943,17.943,0,0,0-.2-3.168q-.2-.99-.2-1.122,0-.462.825-.66a6.542,6.542,0,0,1,1.518-.2.731.731,0,0,1,.71.462,4.757,4.757,0,0,1,.33.99q.115.528.148.726,1.683-2.508,3.762-2.508a2.092,2.092,0,0,1,1.435.429,1.329,1.329,0,0,1,.479,1.023,4.393,4.393,0,0,1-.231,1.32q-.231.726-.528.726a2.467,2.467,0,0,1-.677-.165,3.276,3.276,0,0,0-1.072-.165,2.653,2.653,0,0,0-1.8.677A6.228,6.228,0,0,0,26.5-12.408V-.759q0,.825-1.485.825ZM40.062.231a5.172,5.172,0,0,1-3.877-1.4,5.408,5.408,0,0,1-1.369-3.944V-16.5q0-.825,1.518-.825H36.7q1.518,0,1.518.825V-5.511a2.8,2.8,0,0,0,.759,2.1,3.036,3.036,0,0,0,2.211.743,3.848,3.848,0,0,0,2.046-.611,5.472,5.472,0,0,0,1.65-1.567V-16.5q0-.825,1.518-.825h.363q1.518,0,1.518.825V-5.148a18.208,18.208,0,0,0,.2,3.2q.2.99.2,1.122,0,.462-.825.66a6.542,6.542,0,0,1-1.518.2.731.731,0,0,1-.709-.5,5.373,5.373,0,0,1-.33-1.056q-.116-.561-.149-.759a7.075,7.075,0,0,1-2.31,1.832A6.132,6.132,0,0,1,40.062.231ZM55.011.066q-1.518,0-1.518-.825V-12.012a17.943,17.943,0,0,0-.2-3.168q-.2-.99-.2-1.122,0-.462.825-.66a6.542,6.542,0,0,1,1.518-.2.731.731,0,0,1,.709.462,4.757,4.757,0,0,1,.33.99q.115.528.149.726a7.438,7.438,0,0,1,2.343-1.832,6.068,6.068,0,0,1,2.739-.677,5.172,5.172,0,0,1,3.877,1.4,5.408,5.408,0,0,1,1.369,3.943V-.759q0,.825-1.518.825h-.363q-1.518,0-1.518-.825V-11.748a2.8,2.8,0,0,0-.759-2.1,3.036,3.036,0,0,0-2.211-.743,3.848,3.848,0,0,0-2.046.611,5.472,5.472,0,0,0-1.65,1.568V-.759q0,.825-1.518.825ZM79.068.231Q74.91.231,72.9-1.9T70.884-8.646q0-4.653,2.195-6.748a8.083,8.083,0,0,1,5.825-2.1,11.5,11.5,0,0,1,3.514.512q1.6.512,1.6,1.237a2.662,2.662,0,0,1-.462,1.238q-.462.776-.825.776a3.627,3.627,0,0,1-.429-.165,13.543,13.543,0,0,0-1.535-.561,6.451,6.451,0,0,0-1.832-.231,4.018,4.018,0,0,0-3.349,1.436,7.23,7.23,0,0,0-1.139,4.5,8.085,8.085,0,0,0,1.073,4.7A4.138,4.138,0,0,0,79.1-2.574a7.122,7.122,0,0,0,2-.247,10.7,10.7,0,0,0,1.6-.611,4.235,4.235,0,0,1,.429-.132q.363,0,.825.743a2.477,2.477,0,0,1,.462,1.172q0,.759-1.733,1.32A11.656,11.656,0,0,1,79.068.231ZM89.562.066q-1.485,0-1.485-.825V-24.024q0-.825,1.485-.825h.363q1.518,0,1.518.825v8.811a8.265,8.265,0,0,1,2.228-1.633,5.941,5.941,0,0,1,2.723-.644,5.577,5.577,0,0,1,3.663,1.221q1.485,1.221,1.485,4.125V-.759q0,.825-1.518.825h-.33q-1.518,0-1.518-.825V-11.748a2.8,2.8,0,0,0-.759-2.1,3.085,3.085,0,0,0-2.244-.743,3.692,3.692,0,0,0-1.782.446,5.213,5.213,0,0,0-1.337.99,4.346,4.346,0,0,0-.611.743V-.759q0,.825-1.518.825Z" transform="translate(445 336)" fill="#c5dcff"/><path d="M18.513-12.177a1.126,1.126,0,0,1,.825.264,1.126,1.126,0,0,1,.264.825v8.877q0,1.32-2.194,1.881a21.492,21.492,0,0,1-5.264.561Q1.782.231,1.782-11.418q0-11.913,10.758-11.913a15.135,15.135,0,0,1,3.069.313,10.034,10.034,0,0,1,2.491.809q.974.495.973,1.023a2.952,2.952,0,0,1-.511,1.386q-.511.858-.907.858a4.3,4.3,0,0,1-.825-.363,10.08,10.08,0,0,0-1.8-.66,9.236,9.236,0,0,0-2.459-.3q-3.828,0-5.494,2.162T5.412-11.616A11.432,11.432,0,0,0,7-5.148Q8.58-2.8,12.309-2.805a16.456,16.456,0,0,0,3.762-.4v-5.94h-3.6a.637.637,0,0,1-.578-.28,1.727,1.727,0,0,1-.182-.908v-.66A1.727,1.727,0,0,1,11.9-11.9a.637.637,0,0,1,.578-.281ZM26.4.066q-1.518,0-1.518-.825V-12.012a17.943,17.943,0,0,0-.2-3.168q-.2-.99-.2-1.122,0-.462.825-.66a6.542,6.542,0,0,1,1.518-.2.731.731,0,0,1,.71.462,4.757,4.757,0,0,1,.33.99q.115.528.148.726Q29.7-17.49,31.779-17.49a2.092,2.092,0,0,1,1.435.429,1.329,1.329,0,0,1,.479,1.023,4.393,4.393,0,0,1-.231,1.32q-.231.726-.528.726a2.467,2.467,0,0,1-.677-.165,3.276,3.276,0,0,0-1.072-.165,2.653,2.653,0,0,0-1.8.677,6.228,6.228,0,0,0-1.139,1.237V-.759q0,.825-1.485.825ZM41.217.231a5.806,5.806,0,0,1-3.96-1.271,4.586,4.586,0,0,1-1.452-3.647,4.756,4.756,0,0,1,2.772-4.669,18.518,18.518,0,0,1,7.755-1.37v-1.419a2.333,2.333,0,0,0-.792-1.848A3.813,3.813,0,0,0,43-14.685a7.961,7.961,0,0,0-2.359.313,12.253,12.253,0,0,0-1.716.66,4.194,4.194,0,0,1-.808.346q-.363,0-.841-.776a2.6,2.6,0,0,1-.479-1.171q0-.462.875-.974a8.641,8.641,0,0,1,2.31-.858,12.976,12.976,0,0,1,3.053-.347A7.637,7.637,0,0,1,48-16.087a4.753,4.753,0,0,1,1.7,3.877v7.062a18.208,18.208,0,0,0,.2,3.2q.2.99.2,1.122,0,.462-.808.66a6.338,6.338,0,0,1-1.5.2.753.753,0,0,1-.743-.5,5.373,5.373,0,0,1-.33-1.056q-.115-.561-.148-.759A7.653,7.653,0,0,1,44.336-.5,6.433,6.433,0,0,1,41.217.231Zm.561-2.838A5.225,5.225,0,0,0,44.319-3.2a7.663,7.663,0,0,0,2.013-1.617v-3.3a17.345,17.345,0,0,0-5.115.61A2.478,2.478,0,0,0,39.3-4.95a2.274,2.274,0,0,0,.644,1.733A2.558,2.558,0,0,0,41.778-2.607ZM57.024.066q-1.485,0-1.485-.825v-13.7H54.417a.637.637,0,0,1-.578-.281,1.727,1.727,0,0,1-.181-.908v-.429a1.727,1.727,0,0,1,.181-.907.637.637,0,0,1,.578-.281h1.122V-20.2q0-2.64,1.271-3.713a4.718,4.718,0,0,1,3.152-1.072q2.64,0,2.64,1.155a4,4,0,0,1-.231,1.089q-.231.726-.561.726a2.257,2.257,0,0,1-.495-.083,3.3,3.3,0,0,0-.792-.083,1.6,1.6,0,0,0-1.2.429,2.557,2.557,0,0,0-.412,1.716v2.772h2.508a.637.637,0,0,1,.577.281,1.727,1.727,0,0,1,.182.907v.429a1.727,1.727,0,0,1-.182.908.637.637,0,0,1-.577.281H58.905v13.7q0,.825-1.518.825Z" transform="translate(382 336)" fill="#3c89ff"/><text transform="translate(419 353)" fill="rgba(190,216,255,0.55)" font-size="8" font-family="Asap-Medium, Asap" font-weight="500"><tspan x="0" y="0">NetCrunch Family Memeber</tspan></text><rect width="200" height="75" rx="8" transform="translate(365 292)" fill="none"/></g></svg>